<?xml version="1.0" standalone="no"?>
<!DOCTYPE svg PUBLIC "-//W3C//DTD SVG 20010904//EN"
 "http://www.w3.org/TR/2001/REC-SVG-20010904/DTD/svg10.dtd">
<svg version="1.0" xmlns="http://www.w3.org/2000/svg"
 width="700.000000pt" height="700.000000pt" viewBox="0 0 700.000000 700.000000"
 preserveAspectRatio="xMidYMid meet">
<metadata>
Created by potrace 1.14, written by Peter Selinger 2001-2017
</metadata>
<g transform="translate(0.000000,700.000000) scale(0.100000,-0.100000)"
fill="#000000" stroke="none">
<path d="M1221 6985 c-299 -66 -535 -290 -614 -587 l-22 -83 0 -2810 c0 -3171
-8 -2875 79 -3052 51 -102 75 -136 154 -216 116 -118 273 -201 434 -227 42 -6
803 -10 2253 -10 2131 1 2192 1 2278 20 240 53 438 206 549 425 41 81 61 150
76 256 5 31 8 1309 7 2840 l-2 2784 -27 88 c-84 277 -280 473 -558 559 l-73
23 -2235 2 c-1872 1 -2245 -1 -2299 -12z"/>
</g>
</svg>
